<svg
    width="135"
    height="49"
    viewBox="0 0 135 49"
    fill="none"
    xmlns="http://www.w3.org/2000/svg" >
    <rect width="135" height="49" fill="black"/>
    <path
        d="M31.58 20.64L33.82 27.24H29.34L31.58 20.64ZM28.68 29.64H34.48L35.26 32H38.78L34.02 17.76H29.14L24.36 32H27.9L28.68 29.64ZM49.2767 26.9V24.34H44.1167V20.64H50.4567V17.76H40.7567V32H44.1167V26.9H49.2767ZM59.7298 29.62C57.2098 29.62 55.4098 27.66 55.4098 24.88C55.4098 22.1 57.1898 20.14 59.7298 20.14C61.5698 20.14 63.1698 21.4 63.5698 23.16L66.7298 22.8C66.2098 19.58 63.2498 17.26 59.6498 17.26C55.2498 17.26 52.0498 20.46 52.0498 24.88C52.0498 29.3 55.2498 32.5 59.6498 32.5C63.2898 32.5 66.2498 30.24 66.7298 27.1L63.5898 26.68C63.1498 28.38 61.5298 29.62 59.7298 29.62ZM75.4247 17.76V32H78.7847V17.76H75.4247ZM81.7063 21.76V32H84.7063V26.24C84.7063 24.94 85.6663 24 86.8463 24C88.0263 24 88.7463 24.88 88.7463 26.12V32H91.7463V25.6C91.7463 23.14 90.1863 21.36 87.8863 21.36C86.5463 21.36 85.3463 22.04 84.6263 23.14V21.76H81.7063ZM99.2677 21.36C96.0277 21.36 93.6877 23.68 93.6877 26.88C93.6877 30.08 96.0477 32.4 99.2677 32.4C101.908 32.4 104.148 30.7 104.528 28.34L101.728 27.98C101.448 29.08 100.468 29.88 99.2877 29.88C97.8077 29.88 96.6877 28.62 96.6877 26.88C96.6877 25.14 97.8277 23.88 99.2877 23.88C100.428 23.88 101.448 24.68 101.708 25.78L104.508 25.42C104.188 23.06 101.948 21.36 99.2677 21.36ZM107.908 32.32C108.928 32.32 109.648 31.62 109.648 30.62C109.648 29.64 108.928 28.94 107.908 28.94C106.908 28.94 106.168 29.64 106.168 30.62C106.168 31.62 106.908 32.32 107.908 32.32Z"
        fill="white"
    />
</svg>