<svg width="32" height="32" viewBox="0 0 32 32" fill="none" xmlns="http://www.w3.org/2000/svg">
<path d="M21.442 8.576L20.868 12.176C20.806 12.554 20.968 12.934 21.282 13.152C21.452 13.272 21.654 13.332 21.854 13.332C22.02 13.332 22.188 13.29 22.34 13.206L25.352 11.528L28.376 13.184C28.71 13.368 29.122 13.346 29.436 13.122C29.748 12.9 29.906 12.52 29.844 12.142L29.244 8.546L31.716 5.998C31.978 5.73 32.066 5.336 31.946 4.982C31.826 4.626 31.518 4.368 31.146 4.314L27.756 3.808L26.22 0.57C26.058 0.222 25.706 0 25.32 0C25.318 0 25.318 0 25.316 0C24.93 0.002 24.576 0.225999 24.414 0.577999L22.9 3.826L19.512 4.354C19.142 4.412 18.834 4.672 18.718 5.028C18.6 5.384 18.692 5.776 18.954 6.042L21.442 8.576Z" fill="#FF808E"/>
<path d="M31.1481 22.984L27.7581 22.478L26.2221 19.24C26.0561 18.892 25.7061 18.668 25.3181 18.668C25.3161 18.668 25.3161 18.668 25.3141 18.668C24.9281 18.67 24.5741 18.894 24.4121 19.246L22.8981 22.494L19.5101 23.022C19.1401 23.08 18.8321 23.34 18.7161 23.696C18.5981 24.052 18.6901 24.444 18.9521 24.71L21.4421 27.242L20.8681 30.842C20.8061 31.22 20.9681 31.6 21.2821 31.818C21.4521 31.938 21.6541 31.998 21.8541 31.998C22.0201 31.998 22.1881 31.956 22.3401 31.872L25.3521 30.194L28.3761 31.85C28.7101 32.034 29.1221 32.01 29.4361 31.788C29.7481 31.566 29.9061 31.186 29.8441 30.808L29.2441 27.212L31.7161 24.664C31.9781 24.396 32.0661 24.002 31.9461 23.648C31.8261 23.296 31.5181 23.038 31.1481 22.984Z" fill="#FF808E"/>
<path d="M14.334 18.334H11.668C11.116 18.334 10.668 17.886 10.668 17.334C10.668 16.782 11.116 16.334 11.668 16.334H14.334C14.886 16.334 15.334 16.782 15.334 17.334C15.334 17.886 14.886 18.334 14.334 18.334Z" fill="#FFB3BB"/>
<path d="M17.666 28H14.332C13.78 28 13.332 27.552 13.332 27V9C13.332 8.448 13.78 8 14.332 8H17.666C18.218 8 18.666 8.448 18.666 9C18.666 9.552 18.218 10 17.666 10H15.332V26H17.666C18.218 26 18.666 26.448 18.666 27C18.666 27.552 18.218 28 17.666 28Z" fill="#FFB3BB"/>
<path d="M5.33397 16C3.86397 16 2.66797 14.804 2.66797 13.334C2.66797 11.864 3.86397 10.668 5.33397 10.668C6.80397 10.668 7.99997 11.864 7.99997 13.334C7.99997 14.804 6.80397 16 5.33397 16Z" fill="#FF808E"/>
<path d="M9.666 22.666H1C0.448 22.666 0 22.218 0 21.666V21C0 18.978 1.644 17.334 3.666 17.334H7C9.022 17.334 10.666 18.978 10.666 21V21.666C10.666 22.218 10.218 22.666 9.666 22.666Z" fill="#FF808E"/>
</svg>
