<svg width="32" height="32" viewBox="0 0 32 32" fill="none" xmlns="http://www.w3.org/2000/svg">
<path d="M23 0H3.66602C1.64404 0 0 1.64404 0 3.66602V8.33203C0 10.356 1.64404 12 3.66602 12H23C25.022 12 26.666 10.356 26.666 8.33398V3.66797C26.666 1.64404 25.022 0 23 0Z" fill="#CCB3FF"/>
<path d="M28.666 4.66602H26.666V7.33203H28.666C29.0342 7.33203 29.332 7.62988 29.332 7.99805V13.998C29.332 14.3662 29.0322 14.6641 28.666 14.6641H15.332C13.126 14.6641 11.332 16.458 11.332 18.6641V20H14V18.666C14 17.9321 14.5981 17.332 15.334 17.332H28.668C30.5059 17.334 32 15.8379 32 14V8C32 6.16211 30.5059 4.66602 28.666 4.66602Z" fill="#E0D1FF"/>
<path d="M15 20H10.334C9.0459 20 8 21.0459 8 22.334V29.668C8 30.9541 9.0459 32 10.334 32H15C16.2861 32 17.334 30.9541 17.334 29.666V22.332C17.334 21.0459 16.2861 20 15 20Z" fill="#CCB3FF"/>
</svg>
